<svg width="225" height="39" viewBox="0 0 225 39" fill="none" xmlns="http://www.w3.org/2000/svg">
<rect x="1.5" y="1.5" width="222" height="36" rx="18" stroke="white" stroke-width="3"/>
<path fill-rule="evenodd" clip-rule="evenodd" d="M101.208 17.8499C108.501 14.4998 113.364 12.2912 115.798 11.2241C122.746 8.17729 124.189 7.64803 125.13 7.63056C125.337 7.62671 125.8 7.68079 126.1 7.93722C126.353 8.15375 126.422 8.44625 126.456 8.65154C126.489 8.85683 126.531 9.32449 126.498 9.68991C126.121 13.8607 124.492 23.9821 123.663 28.6535C123.312 30.6301 122.622 31.2929 121.953 31.3577C120.501 31.4987 119.397 30.3455 117.99 29.373C115.788 27.8512 114.544 26.9039 112.407 25.4189C109.937 23.7028 111.538 22.7595 112.946 21.218C113.314 20.8146 119.715 14.676 119.839 14.1191C119.855 14.0494 119.869 13.7898 119.723 13.6527C119.577 13.5157 119.361 13.5625 119.205 13.5998C118.984 13.6527 115.466 16.1039 108.652 20.9536C107.654 21.6765 106.749 22.0287 105.939 22.0102C105.046 21.9899 103.327 21.4777 102.05 21.0399C100.483 20.503 99.238 20.2191 99.3464 19.3072C99.4029 18.8322 100.023 18.3465 101.208 17.8499Z" fill="white"/>
</svg>
