<svg width="303" height="58" viewBox="0 0 303 58" fill="none" xmlns="http://www.w3.org/2000/svg">
<g clip-path="url(#clip0_63_50)">
<path d="M74.7178 19.3058C74.7178 13.1743 78.7633 9.69434 84.7077 9.69434C87.5973 9.69434 89.7439 10.2743 89.7439 10.2743V13.6715C89.7439 13.6715 88.0927 11.2686 84.8728 11.2686C80.9924 11.2686 78.6807 14.3343 78.6807 19.1401C78.6807 23.78 80.9924 26.68 84.9554 26.68C88.3404 26.68 89.9916 24.8572 89.9916 24.8572L90.2393 27.0943C90.2393 27.0943 88.1753 28.3372 83.9646 28.3372C78.433 28.3372 74.7178 25.0229 74.7178 19.3058Z" fill="white"/>
<path d="M109.807 18.6429C109.807 24.0286 109.889 26.1829 110.054 28.0057H106.009C106.256 26.2657 106.256 24.0286 106.256 18.6429V11.7657H98.248V18.6429C98.248 24.0286 98.3306 26.1829 98.4957 28.0057H94.4502C94.6979 26.2657 94.6979 24.0286 94.6979 18.6429C94.6979 13.6714 94.6153 11.6829 94.4502 9.94287H110.054C109.807 11.7657 109.807 13.6714 109.807 18.6429Z" fill="white"/>
<path d="M128.548 22.2058C128.548 25.8515 125.823 28.3373 121.778 28.3373C117.65 28.3373 114.76 26.183 114.76 19.6373C114.76 13.0916 117.072 10.6887 122.604 10.1916L124.998 9.94298C126.401 9.77727 127.144 9.19727 127.144 9.19727V12.9258L122.356 13.1744C118.145 13.423 116.577 14.8316 116.494 18.9744C117.485 17.0687 119.549 15.9915 122.108 15.9915C126.071 16.0744 128.548 18.5601 128.548 22.2058ZM124.915 22.2058C124.915 19.3887 123.594 17.5658 121.778 17.5658C119.879 17.5658 118.641 19.3887 118.641 22.2058C118.641 25.023 119.962 26.8458 121.778 26.8458C123.677 26.8458 124.915 25.023 124.915 22.2058Z" fill="white"/>
<path d="M144.4 12.6771C141.84 11.7656 140.024 11.6828 137.465 11.6828H137.052V18.7256C137.052 24.1114 137.134 26.2656 137.299 28.0885H133.254C133.502 26.3485 133.502 24.1114 133.502 18.7256C133.502 13.7542 133.419 11.7656 133.254 10.0256H144.4V12.6771Z" fill="white"/>
<path d="M162.894 18.7258C162.894 24.7743 158.766 28.3372 152.656 28.3372C149.684 28.3372 147.455 27.7572 147.455 27.7572V24.4429C147.455 24.4429 149.354 26.8458 152.491 26.8458C156.371 26.8458 158.766 24.0286 158.931 19.4715H157.94C155.298 19.4715 153.317 19.6372 150.427 20.0515V17.2343C153.317 17.7315 155.298 17.8972 157.94 17.8972H158.848C158.518 13.8372 156.289 11.2686 152.573 11.2686C149.354 11.2686 147.537 13.5058 147.537 13.5058L147.29 10.9372C147.29 10.9372 149.271 9.69434 152.904 9.69434C159.096 9.69434 162.894 13.0915 162.894 18.7258Z" fill="white"/>
<path d="M179.818 10.0257V12.6772C177.754 11.8486 176.351 11.6829 174.865 11.6829H174.287V18.7257C174.287 24.1114 174.369 26.2657 174.534 28.0886H170.489C170.737 26.3486 170.737 24.1114 170.737 18.7257V11.6H170.241C168.59 11.6 167.187 11.8486 165.205 12.5943V9.94287H179.818V10.0257Z" fill="white"/>
<path d="M199.303 10.0256C197.652 12.6771 196.909 15.3285 194.845 20.0514C192.451 25.5199 191.047 28.2542 187.167 28.2542C185.763 28.2542 185.103 27.7571 185.103 27.7571V24.8571C185.103 24.8571 186.176 26.0999 187.745 26.0999C188.983 26.0999 189.891 25.5199 190.552 24.4428L184.277 13.7542C183.451 12.4285 183.121 11.9313 181.883 10.0256H186.589C187.002 11.7656 187.332 12.5113 188.901 15.2456L192.451 21.2113C192.616 20.7142 192.863 20.1342 193.111 19.5542C195.01 14.4171 195.588 12.9256 195.671 10.1085H199.303V10.0256Z" fill="white"/>
<path d="M210.366 13.5886H211.687L209.128 18.4772L211.687 23.3658H210.366L206.981 18.4772L210.366 13.5886ZM214.494 13.5886H215.815L213.256 18.4772L215.815 23.3658H214.494L211.109 18.4772L214.494 13.5886Z" fill="white"/>
<path d="M235.134 28.0057H230.511C230.346 26.1 230.263 25.1886 228.86 21.9572L225.392 13.5057L222.255 21.8743C221.099 24.94 220.851 26.0172 220.604 28.0057H217.466C218.374 26.1 218.705 25.3543 220.108 21.8743L224.979 9.94287H226.713V10.0257L226.796 9.94287H227.786L232.988 22.9514C233.896 25.3543 234.226 26.1 235.134 28.0057Z" fill="white"/>
<path d="M252.555 18.7258C252.555 24.7743 248.427 28.3372 242.235 28.3372C239.262 28.3372 237.033 27.7572 237.033 27.7572V24.4429C237.033 24.4429 238.932 26.8458 242.07 26.8458C245.95 26.8458 248.344 24.0286 248.509 19.4715H247.519C244.877 19.4715 242.895 19.6372 240.006 20.0515V17.2343C242.895 17.7315 244.877 17.8972 247.519 17.8972H248.427C248.097 13.8372 245.867 11.2686 242.152 11.2686C238.932 11.2686 237.116 13.5058 237.116 13.5058L236.868 10.9372C236.868 10.9372 238.85 9.69434 242.482 9.69434C248.757 9.69434 252.555 13.0915 252.555 18.7258Z" fill="white"/>
<path d="M269.48 10.0257V12.6772C267.416 11.8486 266.012 11.6829 264.526 11.6829H263.948V18.7257C263.948 24.1114 264.031 26.2657 264.196 28.0886H260.151C260.398 26.3486 260.398 24.1114 260.398 18.7257V11.6H259.903C258.252 11.6 256.848 11.8486 254.867 12.5943V9.94287H269.48V10.0257Z" fill="white"/>
<path d="M289.46 18.6429C289.46 24.0286 289.543 26.1829 289.708 28.0057H285.662C285.91 26.2657 285.91 24.0286 285.91 18.6429V13.4229L277.406 28.0057H273.608C273.856 26.2657 273.856 24.2772 273.856 19.3057C273.856 13.92 273.774 11.7657 273.608 9.94287H277.654C277.406 11.6829 277.406 13.92 277.406 19.3057V24.5257L285.91 9.94287H289.708C289.46 11.7657 289.46 13.6714 289.46 18.6429Z" fill="white"/>
<path d="M295.487 23.4485H294.166L296.725 18.56L294.166 13.6714H295.487L298.872 18.56L295.487 23.4485ZM299.615 23.4485H298.294L300.853 18.56L298.294 13.6714H299.615L303 18.56L299.615 23.4485Z" fill="white"/>
<path d="M83.7996 44.08C83.7996 46.7314 83.7996 47.7257 83.9647 48.6371H81.9833C82.0658 47.8085 82.1484 46.7314 82.1484 44.08V40.6828H78.268V44.08C78.268 46.7314 78.268 47.7257 78.4331 48.6371H76.4517C76.5342 47.8085 76.6168 46.7314 76.6168 44.08C76.6168 41.6771 76.6168 40.6828 76.4517 39.8542H84.0473C83.7996 40.6828 83.7996 41.6771 83.7996 44.08Z" fill="white"/>
<path d="M92.4687 47.1458V48.5543H86.772C86.8545 47.7258 86.9371 46.6486 86.9371 43.9972C86.9371 41.5943 86.9371 40.6001 86.772 39.7715H92.221V41.0972C90.9826 40.6001 90.0744 40.6001 88.836 40.6001H88.5883V43.5829C89.6616 43.5829 90.3221 43.5001 91.3954 43.2515V44.7429C90.3221 44.4943 89.6616 44.4943 88.5883 44.4943V47.8915H89.0837C90.3221 47.8086 91.3128 47.7258 92.4687 47.1458Z" fill="white"/>
<path d="M100.972 42.2572C100.972 44.0801 99.734 45.0743 97.2571 45.0743H96.5966C96.5966 46.8143 96.5966 47.7258 96.7617 48.5543H94.7803C94.8628 47.7258 94.9454 46.6486 94.9454 43.9972C94.9454 41.5943 94.9454 40.6001 94.7803 39.7715H97.835C99.8165 39.8543 100.972 40.6829 100.972 42.2572ZM99.156 42.4229C99.156 41.2629 98.5781 40.6001 97.3397 40.6001H96.5966V44.2458H97.092C98.4955 44.3286 99.156 43.6658 99.156 42.4229Z" fill="white"/>
<path d="M109.807 46.0685C109.807 47.7257 108.486 48.6371 106.009 48.6371H103.284C103.367 47.8085 103.449 46.7314 103.449 44.08C103.449 41.6771 103.449 40.6828 103.284 39.8542H106.422C108.486 39.8542 109.476 40.5171 109.476 41.8428C109.476 42.8371 108.898 43.7485 107.412 43.9971C109.229 44.1628 109.807 44.9914 109.807 46.0685ZM105.183 40.6828V43.6657H105.844C107.082 43.6657 107.742 43.0857 107.742 42.0085C107.742 41.0971 107.165 40.6 106.009 40.6H105.183V40.6828ZM108.073 46.1514C108.073 44.9914 107.165 44.4114 105.844 44.4114H105.183V47.8085H105.844C107.247 47.8085 108.073 47.3114 108.073 46.1514Z" fill="white"/>
<path d="M118.228 45.82C118.228 47.6428 116.989 48.6371 114.512 48.6371H114.017H112.201C112.283 47.8085 112.366 46.8142 112.366 44.4114C112.366 41.76 112.366 40.7657 112.201 39.8542H114.182C114.1 40.7657 114.017 41.6771 114.017 43.3342H115.09C117.072 43.3342 118.228 44.2457 118.228 45.82ZM116.411 45.9857C116.411 44.8257 115.833 44.1628 114.595 44.1628H113.934V47.8085H114.347C115.833 47.8085 116.411 47.1457 116.411 45.9857ZM120.952 44.08C120.952 46.7314 120.952 47.7257 121.117 48.6371H119.136C119.218 47.8085 119.301 46.7314 119.301 44.08C119.301 41.6771 119.301 40.6828 119.136 39.8542H121.117C121.035 40.6828 120.952 41.6771 120.952 44.08Z" fill="white"/>
<path d="M131.685 44.08C131.685 46.7314 131.685 47.7257 131.851 48.6371H129.869C129.952 47.8086 130.034 46.7314 130.034 44.08V41.5114L125.906 48.6371H124.09C124.172 47.8086 124.255 46.8143 124.255 44.4114C124.255 41.76 124.255 40.7657 124.09 39.8543H126.071C125.989 40.6828 125.906 41.76 125.906 44.4114V46.98L130.034 39.8543H131.851C131.685 40.6828 131.685 41.6771 131.685 44.08ZM125.411 37.4514H126.979C126.979 37.4514 126.897 38.7771 127.97 38.7771C129.044 38.7771 128.961 37.4514 128.961 37.4514H130.53C130.53 37.4514 130.199 39.44 128.053 39.44C125.741 39.44 125.411 37.4514 125.411 37.4514Z" fill="white"/>
<path d="M145.391 44.08C145.391 46.98 143.409 48.8029 140.354 48.8029C138.868 48.8029 137.795 48.4714 137.795 48.4714V46.8143C137.795 46.8143 138.703 47.9743 140.272 47.9743C142.171 47.9743 143.327 46.5657 143.409 44.4114H142.914C141.593 44.4114 140.685 44.4943 139.281 44.66V43.2514C140.685 43.5 141.675 43.5829 142.914 43.5829H143.409C143.244 41.5943 142.171 40.3514 140.354 40.3514C138.786 40.3514 137.878 41.4286 137.878 41.4286L137.712 40.1857C137.712 40.1857 138.703 39.6057 140.437 39.6057C143.574 39.6886 145.391 41.3457 145.391 44.08Z" fill="white"/>
<path d="M154.968 48.6372H152.739C152.656 47.7258 152.573 47.3115 151.913 45.6543L150.179 41.5115L148.693 45.5715C148.115 47.0629 148.033 47.5601 147.867 48.5543H146.381C146.794 47.6429 146.959 47.2286 147.62 45.5715L150.014 39.7715H150.84H151.335L153.894 46.0686C154.39 47.3115 154.555 47.7258 154.968 48.6372Z" fill="white"/>
<path d="M162.398 47.1458V48.5543H156.701C156.784 47.7258 156.866 46.6486 156.866 43.9972C156.866 41.5943 156.866 40.6001 156.701 39.7715H162.15V41.0972C160.912 40.6001 160.004 40.6001 158.765 40.6001H158.518V43.5829C159.591 43.5829 160.251 43.5001 161.325 43.2515V44.7429C160.251 44.4943 159.591 44.4943 158.518 44.4943V47.8915H159.013C160.251 47.8086 161.325 47.7258 162.398 47.1458Z" fill="white"/>
<path d="M166.691 39.8542C166.609 40.6828 166.526 41.6771 166.526 44.08C166.526 46.7314 166.526 47.7257 166.691 48.6371H164.71C164.793 47.8085 164.875 46.7314 164.875 44.08C164.875 41.6771 164.875 40.6828 164.71 39.8542H166.691ZM172.636 48.6371H169.994L166.774 43.9971L168.508 42.1743C169.499 41.18 169.911 40.6828 170.324 39.8542H172.223C172.223 39.8542 171.15 40.7657 170.159 41.76L168.425 43.5L169.911 45.4885C170.902 46.8971 171.563 47.6428 172.636 48.6371Z" fill="white"/>
<path d="M180.479 39.8542V41.18C179.488 40.7657 178.828 40.6828 178.085 40.6828H177.837V44.08C177.837 46.7314 177.837 47.7257 178.002 48.6371H176.021C176.103 47.8085 176.186 46.7314 176.186 44.08V40.6828H175.856C175.03 40.6828 174.37 40.7657 173.379 41.18V39.8542H180.479Z" fill="white"/>
<path d="M188.735 42.2572C188.735 44.0801 187.497 45.0743 185.02 45.0743H184.442C184.442 46.8143 184.442 47.7258 184.607 48.5543H182.625C182.708 47.7258 182.791 46.6486 182.791 43.9972C182.791 41.5943 182.791 40.6001 182.625 39.7715H185.68C187.579 39.8543 188.735 40.6829 188.735 42.2572ZM186.919 42.4229C186.919 41.2629 186.341 40.6001 185.102 40.6001H184.359V44.2458H184.855C186.258 44.3286 186.919 43.6658 186.919 42.4229Z" fill="white"/>
<path d="M190.469 44.3285C190.469 41.4285 192.203 39.6885 195.175 39.6885C197.899 39.6885 199.55 41.4285 199.55 44.1628C199.55 47.0628 197.817 48.8028 194.845 48.8028C192.12 48.8028 190.469 47.0628 190.469 44.3285ZM197.652 44.3285C197.652 41.9256 196.661 40.517 194.927 40.517C193.358 40.517 192.368 41.9256 192.368 44.2456C192.368 46.6485 193.358 48.057 195.092 48.057C196.661 47.9742 197.652 46.5656 197.652 44.3285Z" fill="white"/>
<path d="M207.807 39.8542V41.18C206.816 40.7657 206.156 40.6828 205.413 40.6828H205.165V44.08C205.165 46.7314 205.165 47.7257 205.33 48.6371H203.348C203.431 47.8085 203.514 46.7314 203.514 44.08V40.6828H203.266C202.44 40.6828 201.78 40.7657 200.789 41.18V39.8542H207.807Z" fill="white"/>
<path d="M215.567 47.1458V48.5543H209.871C209.953 47.7258 210.036 46.6486 210.036 43.9972C210.036 41.5943 210.036 40.6001 209.871 39.7715H215.32V41.0972C214.081 40.6001 213.173 40.6001 211.935 40.6001H211.687V43.5829C212.76 43.5829 213.421 43.5001 214.494 43.2515V44.7429C213.421 44.4943 212.76 44.4943 211.687 44.4943V47.8915H212.182C213.503 47.8086 214.494 47.7258 215.567 47.1458Z" fill="white"/>
<path d="M224.897 48.6371H222.503C222.255 47.8085 222.007 47.3943 221.182 46.1514L220.521 45.0743L219.861 46.0685C219.118 47.2285 218.788 47.8085 218.622 48.6371H216.889C216.889 48.6371 217.467 47.8914 218.21 46.8142L219.943 44.3285L218.21 41.5942C217.549 40.5171 216.889 39.8542 216.889 39.8542H219.2C219.448 40.6828 219.696 41.0971 220.521 42.34L221.099 43.1685L221.595 42.4228C222.338 41.2628 222.668 40.6828 222.833 39.8542H224.567C224.567 39.8542 223.989 40.6 223.246 41.6771L221.595 43.9142L223.494 46.8142C224.237 47.9742 224.897 48.6371 224.897 48.6371Z" fill="white"/>
<path d="M234.392 44.08C234.392 46.7314 234.392 47.7257 234.557 48.6371H232.575C232.658 47.8085 232.74 46.8142 232.74 44.4943H228.695C228.695 46.8142 228.695 47.8085 228.86 48.6371H226.878C226.961 47.8085 227.044 46.7314 227.044 44.08C227.044 41.6771 227.044 40.6828 226.878 39.8542H228.86C228.777 40.6828 228.695 41.5114 228.695 43.5828H232.74C232.74 41.5114 232.74 40.6 232.575 39.8542H234.557C234.392 40.6828 234.392 41.6771 234.392 44.08Z" fill="white"/>
<path d="M245.042 44.08C245.042 46.7314 245.042 47.7257 245.207 48.6371H243.226C243.308 47.8085 243.391 46.7314 243.391 44.08V41.5114L239.263 48.6371H237.446C237.529 47.8085 237.611 46.8142 237.611 44.4114C237.611 41.76 237.611 40.7657 237.446 39.8542H239.428C239.345 40.6828 239.263 41.76 239.263 44.4114V46.98L243.391 39.8542H245.207C245.042 40.6828 245.042 41.6771 245.042 44.08Z" fill="white"/>
<path d="M254.206 44.0801C254.206 46.7315 254.206 47.7258 254.372 48.6372H252.39C252.473 47.8915 252.555 46.8972 252.555 44.8258C252.142 44.9915 251.234 45.3229 250.161 45.3229C248.427 45.3229 247.767 44.4115 247.767 42.9201C247.767 41.5943 247.767 40.6829 247.602 39.8543H249.583C249.5 40.7658 249.418 41.8429 249.418 42.7543C249.418 43.7486 249.831 44.2458 250.739 44.2458C251.482 44.2458 252.225 44.0801 252.555 43.9143C252.555 41.5943 252.555 40.6001 252.39 39.7715H254.372C254.289 40.6829 254.206 41.6772 254.206 44.0801Z" fill="white"/>
<path d="M262.875 47.1458V48.5543H257.179C257.261 47.7258 257.344 46.6486 257.344 43.9972C257.344 41.5943 257.344 40.6001 257.179 39.7715H262.628V41.0972C261.389 40.6001 260.481 40.6001 259.243 40.6001H258.995V43.5829C260.068 43.5829 260.729 43.5001 261.802 43.2515V44.7429C260.729 44.4943 260.068 44.4943 258.995 44.4943V47.8915H259.49C260.811 47.8086 261.802 47.7258 262.875 47.1458Z" fill="white"/>
<path d="M264.609 44.4113C264.609 41.4285 266.59 39.6885 269.48 39.6885C270.884 39.6885 271.874 40.0199 271.874 40.0199V41.677C271.874 41.677 271.049 40.517 269.48 40.517C267.581 40.517 266.425 42.0085 266.425 44.3285C266.425 46.5656 267.581 47.9742 269.48 47.9742C271.131 47.9742 271.957 47.0628 271.957 47.0628L272.122 48.1399C272.122 48.1399 271.131 48.7199 269.067 48.7199C266.425 48.8028 264.609 47.1456 264.609 44.4113Z" fill="white"/>
<path d="M276.25 39.8542C276.167 40.6828 276.085 41.6771 276.085 44.08C276.085 46.7314 276.085 47.7257 276.25 48.6371H274.269C274.351 47.8085 274.434 46.7314 274.434 44.08C274.434 41.6771 274.434 40.6828 274.269 39.8542H276.25ZM282.112 48.6371H279.47L276.25 43.9971L277.984 42.1743C278.975 41.18 279.387 40.6828 279.8 39.8542H281.699C281.699 39.8542 280.626 40.7657 279.635 41.76L277.901 43.5L279.387 45.4885C280.461 46.8971 281.039 47.6428 282.112 48.6371Z" fill="white"/>
<path d="M291.441 44.08C291.441 46.7314 291.441 47.7257 291.606 48.6371H289.625C289.708 47.8085 289.79 46.7314 289.79 44.08V41.5114L285.662 48.6371H283.846C283.928 47.8085 284.011 46.8142 284.011 44.4114C284.011 41.76 284.011 40.7657 283.846 39.8542H285.827C285.745 40.6828 285.662 41.76 285.662 44.4114V46.98L289.79 39.8542H291.606C291.441 40.6828 291.441 41.6771 291.441 44.08Z" fill="white"/>
<path d="M302.092 44.08C302.092 46.7314 302.092 47.7257 302.257 48.6371H300.275C300.358 47.8086 300.44 46.7314 300.44 44.08V41.5114L296.312 48.6371H294.496C294.579 47.8086 294.661 46.8143 294.661 44.4114C294.661 41.76 294.661 40.7657 294.496 39.8543H296.478C296.395 40.6828 296.312 41.76 296.312 44.4114V46.98L300.44 39.8543H302.257C302.092 40.6828 302.092 41.6771 302.092 44.08ZM295.9 37.4514H297.468C297.468 37.4514 297.386 38.7771 298.459 38.7771C299.532 38.7771 299.45 37.4514 299.45 37.4514H301.018C301.018 37.4514 300.688 39.44 298.542 39.44C296.23 39.44 295.9 37.4514 295.9 37.4514Z" fill="white"/>
<path d="M33.9326 31.5686C34.0152 32.3143 34.0152 33.2257 34.0152 35.38C34.0152 37.7829 34.0152 38.6943 33.9326 39.5229H35.6664C35.5838 38.6943 35.5838 37.7829 35.5838 35.38C35.5838 33.1429 35.5838 32.3143 35.6664 31.5686H33.9326Z" fill="white"/>
<path d="M37.2354 37.3685C37.2354 38.7771 38.3086 39.6057 40.125 39.6057C42.0239 39.6057 43.0972 38.7771 43.0972 37.2857C43.0972 36.2914 42.5193 35.6285 41.5285 35.2971C42.3542 34.9657 42.8495 34.3857 42.8495 33.4743C42.8495 32.1485 41.8588 31.4028 40.2076 31.4028C38.4738 31.4028 37.483 32.2314 37.483 33.5571C37.483 34.3857 37.9784 35.0485 38.804 35.38C37.8133 35.7114 37.2354 36.3743 37.2354 37.3685ZM40.125 32.1485C40.868 32.1485 41.2809 32.7285 41.2809 33.64C41.2809 34.5514 40.8681 35.0485 40.2076 35.0485C39.4645 35.0485 39.0517 34.4685 39.0517 33.5571C39.0517 32.6457 39.4645 32.1485 40.125 32.1485ZM40.125 35.7943C40.9506 35.7943 41.446 36.3743 41.446 37.4514C41.446 38.4457 40.9506 39.0257 40.125 39.0257C39.2994 39.0257 38.804 38.4457 38.804 37.3685C38.8866 36.3743 39.3819 35.7943 40.125 35.7943Z" fill="white"/>
<path d="M44.2529 37.3685C44.2529 38.7771 45.3262 39.6057 47.1426 39.6057C49.0415 39.6057 50.1148 38.7771 50.1148 37.2857C50.1148 36.2914 49.5369 35.6285 48.5461 35.2971C49.3717 34.9657 49.8671 34.3857 49.8671 33.4743C49.8671 32.1485 48.8764 31.4028 47.2251 31.4028C45.4914 31.4028 44.5006 32.2314 44.5006 33.5571C44.5006 34.3857 44.996 35.0485 45.8216 35.38C44.8309 35.7114 44.2529 36.3743 44.2529 37.3685ZM47.2251 32.1485C47.9682 32.1485 48.381 32.7285 48.381 33.64C48.381 34.5514 47.9682 35.0485 47.3077 35.0485C46.5646 35.0485 46.1518 34.4685 46.1518 33.5571C46.0693 32.6457 46.4821 32.1485 47.2251 32.1485ZM47.2251 35.7943C48.0508 35.7943 48.5461 36.3743 48.5461 37.4514C48.5461 38.4457 48.0508 39.0257 47.2251 39.0257C46.3995 39.0257 45.9042 38.4457 45.9042 37.3685C45.9042 36.3743 46.3995 35.7943 47.2251 35.7943Z" fill="white"/>
<path d="M54.7381 34.3856C53.83 34.3856 53.252 34.7999 52.9218 35.2142C53.0043 33.3913 53.4997 32.1485 54.7381 32.1485C55.7289 32.1485 56.3068 33.1427 56.3068 33.1427V31.7342C56.3068 31.7342 55.7289 31.4856 54.6556 31.4856C52.6741 31.4856 51.188 33.0599 51.188 35.7942C51.188 38.5285 52.3438 39.7713 54.2428 39.7713C55.9765 39.7713 57.0498 38.6942 57.0498 36.9542C57.1324 35.297 56.2242 34.3856 54.7381 34.3856ZM54.4079 38.8599C53.5823 38.8599 53.0869 38.197 53.0043 36.0427C53.252 35.7113 53.7474 35.3799 54.3253 35.3799C55.1509 35.3799 55.5637 35.9599 55.5637 37.037C55.5637 38.197 55.0684 38.8599 54.4079 38.8599Z" fill="white"/>
<path d="M49.2065 8.45143C37.9782 -2.81714 19.7322 -2.81714 8.50381 8.45143C2.97221 13.92 0.165123 21.0457 0 28.2543V28.3371C0 28.6686 0 28.9171 0 29.2486C0 29.0829 0 29 0 28.8343C0 31.32 0.247684 33.8057 0.908174 36.2914C4.95368 51.7857 20.6403 61.0657 36.0793 57.0886C43.3447 55.1829 49.2065 50.7086 53.0044 44.8257H52.9218C49.4542 49.7971 44.3354 53.6086 37.9782 55.2657C23.9428 58.9114 9.57711 50.46 5.94441 36.3743C5.28392 33.64 5.03624 30.9886 5.1188 28.3371H6.27466C6.1921 30.4914 6.43978 32.7286 7.01771 34.8829C10.3202 47.56 23.1997 55.1 35.749 51.8686C40.3725 50.7086 44.2529 48.14 47.2251 44.8257C43.4272 48.3886 38.391 50.6257 32.7768 50.6257C26.7499 50.6257 21.3008 48.0571 17.4204 43.9971C17.3379 43.9143 17.2553 43.8314 17.2553 43.8314C17.1728 43.7486 17.0902 43.6657 17.0902 43.5829C14.9436 41.18 13.2098 38.1971 12.3842 34.8C11.8063 32.6457 11.6411 30.4914 11.8063 28.3371H13.1272C13.0447 30.16 13.2098 31.9829 13.7052 33.8057C16.182 43.5 26.0894 49.3829 35.749 46.8143C37.4003 46.4 38.9689 45.7371 40.3725 44.8257H40.0422C38.1433 45.6543 35.9967 46.1514 33.8501 46.1514C25.1812 46.1514 18.1635 39.1086 18.1635 30.4086C18.1635 29.6629 18.246 29 18.3286 28.3371H22.4567H39.3817H44.9133H52.6741H57.7104C57.4627 21.1286 54.6556 13.92 49.2065 8.45143ZM9.1643 27.4257C9.74223 24.5257 11.0632 21.7086 13.2924 19.4714C19.2368 13.5057 28.979 13.5057 34.9234 19.4714C36.4921 21.0457 37.648 22.8686 38.3084 24.7743L9.1643 27.4257ZM39.5469 17.1514C32.4466 10.0257 21.0531 10.0257 13.9529 17.1514C11.0632 20.0514 9.41199 23.6971 8.91662 27.5086L4.21063 27.9229C4.78856 23.4486 6.77003 19.0571 10.2376 15.66C18.4937 7.37428 31.8687 7.37428 40.1248 15.66C42.6016 18.1457 44.3354 21.0457 45.3262 24.1943L44.0052 24.2771C43.097 21.7086 41.6109 19.2229 39.5469 17.1514ZM50.7752 23.6971C49.7845 19.72 47.7204 15.9914 44.5831 12.8429C35.3362 3.56286 20.3101 3.56286 10.9807 12.8429C6.77003 17.0686 4.54087 22.4543 4.12807 27.9229L1.4861 28.1714L0 28.2543C0.330245 21.9571 2.88965 15.8257 7.6782 11.02C17.9158 0.662858 34.5932 0.662858 44.9133 11.02C48.4635 14.5829 50.7752 18.9743 51.8485 23.6143L50.7752 23.6971Z" fill="white"/>
</g>
<defs>
<clipPath id="clip0_63_50">
<rect width="303" height="58" fill="white"/>
</clipPath>
</defs>
</svg>
