<svg width="404" height="77" viewBox="0 0 404 77" fill="none" xmlns="http://www.w3.org/2000/svg">
<g clip-path="url(#clip0_35_160)">
<path d="M99.624 25.63C99.624 17.49 105.018 12.87 112.944 12.87C116.797 12.87 119.659 13.64 119.659 13.64V18.15C119.659 18.15 117.457 14.96 113.164 14.96C107.99 14.96 104.908 19.03 104.908 25.41C104.908 31.57 107.99 35.42 113.274 35.42C117.788 35.42 119.989 33 119.989 33L120.319 35.97C120.319 35.97 117.567 37.62 111.953 37.62C104.578 37.62 99.624 33.22 99.624 25.63Z" fill="#05336E"/>
<path d="M146.409 24.75C146.409 31.9 146.519 34.76 146.739 37.18H141.345C141.675 34.87 141.675 31.9 141.675 24.75V15.62H130.997V24.75C130.997 31.9 131.107 34.76 131.328 37.18H125.934C126.264 34.87 126.264 31.9 126.264 24.75C126.264 18.15 126.154 15.51 125.934 13.2H146.739C146.409 15.62 146.409 18.15 146.409 24.75Z" fill="#05336E"/>
<path d="M171.397 29.48C171.397 34.32 167.765 37.62 162.371 37.62C156.867 37.62 153.014 34.76 153.014 26.07C153.014 17.38 156.096 14.19 163.471 13.53L166.664 13.2C168.535 12.98 169.526 12.21 169.526 12.21V17.16L163.141 17.49C157.527 17.82 155.435 19.69 155.325 25.19C156.646 22.66 159.398 21.23 162.811 21.23C168.095 21.34 171.397 24.64 171.397 29.48ZM166.554 29.48C166.554 25.74 164.792 23.32 162.371 23.32C159.839 23.32 158.188 25.74 158.188 29.48C158.188 33.22 159.949 35.64 162.371 35.64C164.903 35.64 166.554 33.22 166.554 29.48Z" fill="#05336E"/>
<path d="M192.533 16.8301C189.12 15.6201 186.699 15.5101 183.286 15.5101H182.736V24.8601C182.736 32.0101 182.846 34.8701 183.066 37.2901H177.672C178.002 34.9801 178.002 32.0101 178.002 24.8601C178.002 18.2601 177.892 15.6201 177.672 13.3101H192.533V16.8301Z" fill="#05336E"/>
<path d="M217.191 24.86C217.191 32.89 211.687 37.62 203.541 37.62C199.578 37.62 196.606 36.85 196.606 36.85V32.45C196.606 32.45 199.138 35.64 203.321 35.64C208.495 35.64 211.687 31.9 211.907 25.85H210.586C207.064 25.85 204.422 26.07 200.569 26.62V22.88C204.422 23.54 207.064 23.76 210.586 23.76H211.797C211.357 18.37 208.385 14.96 203.431 14.96C199.138 14.96 196.716 17.93 196.716 17.93L196.386 14.52C196.386 14.52 199.028 12.87 203.871 12.87C212.127 12.87 217.191 17.38 217.191 24.86Z" fill="#05336E"/>
<path d="M239.758 13.31V16.83C237.006 15.73 235.134 15.51 233.153 15.51H232.382V24.86C232.382 32.01 232.492 34.87 232.713 37.29H227.319C227.649 34.98 227.649 32.01 227.649 24.86V15.4H226.988C224.787 15.4 222.915 15.73 220.273 16.72V13.2H239.758V13.31Z" fill="#05336E"/>
<path d="M265.737 13.3101C263.536 16.8301 262.545 20.3501 259.793 26.6201C256.601 33.8801 254.729 37.5101 249.555 37.5101C247.684 37.5101 246.803 36.8501 246.803 36.8501V33.0001C246.803 33.0001 248.234 34.6501 250.326 34.6501C251.977 34.6501 253.188 33.8801 254.069 32.4501L245.703 18.2601C244.602 16.5001 244.161 15.8401 242.51 13.3101H248.785C249.335 15.6201 249.776 16.6101 251.867 20.2401L256.601 28.1601C256.821 27.5001 257.151 26.7301 257.481 25.9601C260.013 19.1401 260.784 17.1601 260.894 13.4201H265.737V13.3101Z" fill="#05336E"/>
<path d="M280.488 18.04H282.25L278.837 24.53L282.25 31.02H280.488L275.975 24.53L280.488 18.04ZM285.993 18.04H287.754L284.341 24.53L287.754 31.02H285.993L281.479 24.53L285.993 18.04Z" fill="#05336E"/>
<path d="M313.513 37.18H307.348C307.128 34.65 307.018 33.44 305.146 29.15L300.523 17.93L296.34 29.04C294.799 33.11 294.468 34.54 294.138 37.18H289.955C291.166 34.65 291.606 33.66 293.478 29.04L299.973 13.2H302.284V13.31L302.394 13.2H303.715L310.65 30.47C311.861 33.66 312.302 34.65 313.513 37.18Z" fill="#05336E"/>
<path d="M336.74 24.86C336.74 32.89 331.236 37.62 322.98 37.62C319.017 37.62 316.045 36.85 316.045 36.85V32.45C316.045 32.45 318.577 35.64 322.76 35.64C327.934 35.64 331.126 31.9 331.346 25.85H330.025C326.503 25.85 323.861 26.07 320.008 26.62V22.88C323.861 23.54 326.503 23.76 330.025 23.76H331.236C330.796 18.37 327.824 14.96 322.87 14.96C318.577 14.96 316.155 17.93 316.155 17.93L315.825 14.52C315.825 14.52 318.467 12.87 323.31 12.87C331.676 12.87 336.74 17.38 336.74 24.86Z" fill="#05336E"/>
<path d="M359.307 13.31V16.83C356.555 15.73 354.683 15.51 352.702 15.51H351.931V24.86C351.931 32.01 352.041 34.87 352.261 37.29H346.867C347.198 34.98 347.198 32.01 347.198 24.86V15.4H346.537C344.336 15.4 342.464 15.73 339.822 16.72V13.2H359.307V13.31Z" fill="#05336E"/>
<path d="M385.947 24.75C385.947 31.9 386.057 34.76 386.277 37.18H380.883C381.213 34.87 381.213 31.9 381.213 24.75V17.82L369.875 37.18H364.811C365.141 34.87 365.141 32.23 365.141 25.63C365.141 18.48 365.031 15.62 364.811 13.2H370.205C369.875 15.51 369.875 18.48 369.875 25.63V32.56L381.213 13.2H386.277C385.947 15.62 385.947 18.15 385.947 24.75Z" fill="#05336E"/>
<path d="M393.983 31.13H392.221L395.634 24.64L392.221 18.15H393.983L398.496 24.64L393.983 31.13ZM399.487 31.13H397.725L401.138 24.64L397.725 18.15H399.487L404 24.64L399.487 31.13Z" fill="#05336E"/>
<path d="M111.733 58.52C111.733 62.04 111.733 63.36 111.953 64.57H109.311C109.421 63.47 109.531 62.04 109.531 58.52V54.01H104.357V58.52C104.357 62.04 104.357 63.36 104.578 64.57H101.936C102.046 63.47 102.156 62.04 102.156 58.52C102.156 55.33 102.156 54.01 101.936 52.91H112.063C111.733 54.01 111.733 55.33 111.733 58.52Z" fill="#05336E"/>
<path d="M123.291 62.5901V64.46H115.696C115.806 63.36 115.916 61.93 115.916 58.41C115.916 55.22 115.916 53.9 115.696 52.8H122.961V54.56C121.31 53.9 120.099 53.9 118.448 53.9H118.118V57.86C119.549 57.86 120.429 57.75 121.86 57.42V59.4C120.429 59.07 119.549 59.07 118.118 59.07V63.58H118.778C120.429 63.47 121.75 63.3601 123.291 62.5901Z" fill="#05336E"/>
<path d="M134.63 56.1C134.63 58.52 132.979 59.8401 129.676 59.8401H128.796C128.796 62.1501 128.796 63.36 129.016 64.46H126.374C126.484 63.36 126.594 61.93 126.594 58.41C126.594 55.22 126.594 53.9 126.374 52.8H130.447C133.089 52.91 134.63 54.01 134.63 56.1ZM132.208 56.32C132.208 54.78 131.438 53.9 129.787 53.9H128.796V58.7401H129.456C131.328 58.8501 132.208 57.97 132.208 56.32Z" fill="#05336E"/>
<path d="M146.409 61.16C146.409 63.36 144.648 64.57 141.345 64.57H137.712C137.822 63.47 137.933 62.04 137.933 58.52C137.933 55.33 137.933 54.01 137.712 52.91H141.896C144.648 52.91 145.969 53.79 145.969 55.55C145.969 56.87 145.198 58.08 143.216 58.41C145.638 58.63 146.409 59.73 146.409 61.16ZM140.244 54.01V57.97H141.125C142.776 57.97 143.657 57.2 143.657 55.77C143.657 54.56 142.886 53.9 141.345 53.9H140.244V54.01ZM144.097 61.27C144.097 59.73 142.886 58.96 141.125 58.96H140.244V63.47H141.125C142.996 63.47 144.097 62.81 144.097 61.27Z" fill="#05336E"/>
<path d="M157.637 60.83C157.637 63.25 155.986 64.57 152.683 64.57H152.023H149.601C149.711 63.47 149.821 62.15 149.821 58.96C149.821 55.44 149.821 54.12 149.601 52.91H152.243C152.133 54.12 152.023 55.33 152.023 57.53H153.454C156.096 57.53 157.637 58.74 157.637 60.83ZM155.215 61.05C155.215 59.51 154.445 58.63 152.793 58.63H151.913V63.47H152.463C154.445 63.47 155.215 62.59 155.215 61.05ZM161.27 58.52C161.27 62.04 161.27 63.36 161.49 64.57H158.848C158.958 63.47 159.068 62.04 159.068 58.52C159.068 55.33 159.068 54.01 158.848 52.91H161.49C161.38 54.01 161.27 55.33 161.27 58.52Z" fill="#05336E"/>
<path d="M175.58 58.52C175.58 62.04 175.58 63.36 175.8 64.57H173.158C173.268 63.47 173.379 62.04 173.379 58.52V55.11L167.874 64.57H165.453C165.563 63.47 165.673 62.15 165.673 58.96C165.673 55.44 165.673 54.12 165.453 52.91H168.095C167.985 54.01 167.874 55.44 167.874 58.96V62.37L173.379 52.91H175.8C175.58 54.01 175.58 55.33 175.58 58.52ZM167.214 49.72H169.305C169.305 49.72 169.195 51.48 170.626 51.48C172.058 51.48 171.947 49.72 171.947 49.72H174.039C174.039 49.72 173.599 52.36 170.737 52.36C167.654 52.36 167.214 49.72 167.214 49.72Z" fill="#05336E"/>
<path d="M193.854 58.52C193.854 62.37 191.212 64.79 187.139 64.79C185.157 64.79 183.726 64.35 183.726 64.35V62.15C183.726 62.15 184.937 63.69 187.029 63.69C189.561 63.69 191.102 61.82 191.212 58.96H190.551C188.79 58.96 187.579 59.07 185.708 59.29V57.42C187.579 57.75 188.9 57.86 190.551 57.86H191.212C190.992 55.22 189.561 53.57 187.139 53.57C185.047 53.57 183.836 55 183.836 55L183.616 53.35C183.616 53.35 184.937 52.58 187.249 52.58C191.432 52.69 193.854 54.89 193.854 58.52Z" fill="#05336E"/>
<path d="M206.623 64.57H203.651C203.541 63.36 203.431 62.81 202.55 60.61L200.239 55.11L198.257 60.5C197.487 62.48 197.376 63.14 197.156 64.46H195.175C195.725 63.25 195.945 62.7 196.826 60.5L200.018 52.8H201.119H201.78L205.192 61.16C205.853 62.81 206.073 63.36 206.623 64.57Z" fill="#05336E"/>
<path d="M216.531 62.5901V64.46H208.935C209.045 63.36 209.155 61.93 209.155 58.41C209.155 55.22 209.155 53.9 208.935 52.8H216.2V54.56C214.549 53.9 213.338 53.9 211.687 53.9H211.357V57.86C212.788 57.86 213.669 57.75 215.1 57.42V59.4C213.669 59.07 212.788 59.07 211.357 59.07V63.58H212.017C213.669 63.47 215.1 63.3601 216.531 62.5901Z" fill="#05336E"/>
<path d="M222.255 52.91C222.145 54.01 222.035 55.33 222.035 58.52C222.035 62.04 222.035 63.36 222.255 64.57H219.613C219.723 63.47 219.833 62.04 219.833 58.52C219.833 55.33 219.833 54.01 219.613 52.91H222.255ZM230.181 64.57H226.659L222.365 58.41L224.677 55.99C225.998 54.67 226.548 54.01 227.099 52.91H229.631C229.631 52.91 228.2 54.12 226.879 55.44L224.567 57.75L226.548 60.39C227.869 62.26 228.75 63.25 230.181 64.57Z" fill="#05336E"/>
<path d="M240.639 52.91V54.67C239.318 54.12 238.437 54.01 237.447 54.01H237.116V58.52C237.116 62.04 237.116 63.36 237.336 64.57H234.694C234.805 63.47 234.915 62.04 234.915 58.52V54.01H234.474C233.374 54.01 232.493 54.12 231.172 54.67V52.91H240.639Z" fill="#05336E"/>
<path d="M251.647 56.1C251.647 58.52 249.996 59.8401 246.693 59.8401H245.923C245.923 62.1501 245.923 63.36 246.143 64.46H243.501C243.611 63.36 243.721 61.93 243.721 58.41C243.721 55.22 243.721 53.9 243.501 52.8H247.574C250.106 52.91 251.647 54.01 251.647 56.1ZM249.225 56.32C249.225 54.78 248.455 53.9 246.803 53.9H245.813V58.7401H246.473C248.345 58.8501 249.225 57.97 249.225 56.32Z" fill="#05336E"/>
<path d="M253.958 58.8499C253.958 54.9999 256.27 52.6899 260.233 52.6899C263.866 52.6899 266.067 54.9999 266.067 58.6299C266.067 62.4799 263.756 64.7899 259.793 64.7899C256.16 64.7899 253.958 62.4799 253.958 58.8499ZM263.536 58.8499C263.536 55.6599 262.215 53.7899 259.903 53.7899C257.811 53.7899 256.49 55.6599 256.49 58.7399C256.49 61.9299 257.811 63.7999 260.123 63.7999C262.215 63.6899 263.536 61.8199 263.536 58.8499Z" fill="#05336E"/>
<path d="M277.076 52.91V54.67C275.755 54.12 274.874 54.01 273.883 54.01H273.553V58.52C273.553 62.04 273.553 63.36 273.773 64.57H271.131C271.241 63.47 271.351 62.04 271.351 58.52V54.01H271.021C269.92 54.01 269.04 54.12 267.719 54.67V52.91H277.076Z" fill="#05336E"/>
<path d="M287.423 62.5901V64.46H279.828C279.938 63.36 280.048 61.93 280.048 58.41C280.048 55.22 280.048 53.9 279.828 52.8H287.093V54.56C285.442 53.9 284.231 53.9 282.58 53.9H282.249V57.86C283.68 57.86 284.561 57.75 285.992 57.42V59.4C284.561 59.07 283.68 59.07 282.249 59.07V63.58H282.91C284.671 63.47 285.992 63.3601 287.423 62.5901Z" fill="#05336E"/>
<path d="M299.862 64.57H296.67C296.34 63.47 296.01 62.92 294.909 61.27L294.028 59.84L293.147 61.16C292.157 62.7 291.716 63.47 291.496 64.57H289.185C289.185 64.57 289.955 63.58 290.946 62.15L293.258 58.85L290.946 55.22C290.065 53.79 289.185 52.91 289.185 52.91H292.267C292.597 54.01 292.927 54.56 294.028 56.21L294.799 57.31L295.459 56.32C296.45 54.78 296.89 54.01 297.11 52.91H299.422C299.422 52.91 298.652 53.9 297.661 55.33L295.459 58.3L297.991 62.15C298.982 63.69 299.862 64.57 299.862 64.57Z" fill="#05336E"/>
<path d="M312.522 58.52C312.522 62.04 312.522 63.36 312.742 64.57H310.1C310.21 63.47 310.32 62.15 310.32 59.07H304.926C304.926 62.15 304.926 63.47 305.146 64.57H302.504C302.614 63.47 302.725 62.04 302.725 58.52C302.725 55.33 302.725 54.01 302.504 52.91H305.146C305.036 54.01 304.926 55.11 304.926 57.86H310.32C310.32 55.11 310.32 53.9 310.1 52.91H312.742C312.522 54.01 312.522 55.33 312.522 58.52Z" fill="#05336E"/>
<path d="M326.723 58.52C326.723 62.04 326.723 63.36 326.943 64.57H324.301C324.411 63.47 324.521 62.04 324.521 58.52V55.11L319.017 64.57H316.595C316.705 63.47 316.815 62.15 316.815 58.96C316.815 55.44 316.815 54.12 316.595 52.91H319.237C319.127 54.01 319.017 55.44 319.017 58.96V62.37L324.521 52.91H326.943C326.723 54.01 326.723 55.33 326.723 58.52Z" fill="#05336E"/>
<path d="M338.942 58.52C338.942 62.04 338.942 63.36 339.162 64.57H336.52C336.63 63.58 336.74 62.26 336.74 59.51C336.19 59.73 334.979 60.17 333.548 60.17C331.236 60.17 330.355 58.96 330.355 56.98C330.355 55.22 330.355 54.01 330.135 52.91H332.777C332.667 54.12 332.557 55.55 332.557 56.76C332.557 58.08 333.107 58.7401 334.318 58.7401C335.309 58.7401 336.3 58.52 336.74 58.3C336.74 55.22 336.74 53.9 336.52 52.8H339.162C339.052 54.01 338.942 55.33 338.942 58.52Z" fill="#05336E"/>
<path d="M350.5 62.5901V64.46H342.905C343.015 63.36 343.125 61.93 343.125 58.41C343.125 55.22 343.125 53.9 342.905 52.8H350.17V54.56C348.519 53.9 347.308 53.9 345.657 53.9H345.327V57.86C346.758 57.86 347.638 57.75 349.069 57.42V59.4C347.638 59.07 346.758 59.07 345.327 59.07V63.58H345.987C347.748 63.47 349.069 63.3601 350.5 62.5901Z" fill="#05336E"/>
<path d="M352.812 58.9599C352.812 54.9999 355.454 52.6899 359.307 52.6899C361.178 52.6899 362.499 53.1299 362.499 53.1299V55.3299C362.499 55.3299 361.398 53.7899 359.307 53.7899C356.775 53.7899 355.234 55.7699 355.234 58.8499C355.234 61.8199 356.775 63.6899 359.307 63.6899C361.508 63.6899 362.609 62.4799 362.609 62.4799L362.829 63.9099C362.829 63.9099 361.508 64.6799 358.756 64.6799C355.234 64.7899 352.812 62.5899 352.812 58.9599Z" fill="#05336E"/>
<path d="M368.333 52.91C368.223 54.01 368.113 55.33 368.113 58.52C368.113 62.04 368.113 63.36 368.333 64.57H365.691C365.801 63.47 365.912 62.04 365.912 58.52C365.912 55.33 365.912 54.01 365.691 52.91H368.333ZM376.149 64.57H372.627L368.333 58.41L370.645 55.99C371.966 54.67 372.516 54.01 373.067 52.91H375.599C375.599 52.91 374.168 54.12 372.847 55.44L370.535 57.75L372.516 60.39C373.948 62.26 374.718 63.25 376.149 64.57Z" fill="#05336E"/>
<path d="M388.588 58.52C388.588 62.04 388.588 63.36 388.809 64.57H386.167C386.277 63.47 386.387 62.04 386.387 58.52V55.11L380.883 64.57H378.461C378.571 63.47 378.681 62.15 378.681 58.96C378.681 55.44 378.681 54.12 378.461 52.91H381.103C380.993 54.01 380.883 55.44 380.883 58.96V62.37L386.387 52.91H388.809C388.588 54.01 388.588 55.33 388.588 58.52Z" fill="#05336E"/>
<path d="M402.789 58.52C402.789 62.04 402.789 63.36 403.009 64.57H400.367C400.477 63.47 400.587 62.04 400.587 58.52V55.11L395.083 64.57H392.662C392.772 63.47 392.882 62.15 392.882 58.96C392.882 55.44 392.882 54.12 392.662 52.91H395.304C395.193 54.01 395.083 55.44 395.083 58.96V62.37L400.587 52.91H403.009C402.789 54.01 402.789 55.33 402.789 58.52ZM394.533 49.72H396.625C396.625 49.72 396.514 51.48 397.946 51.48C399.377 51.48 399.267 49.72 399.267 49.72H401.358C401.358 49.72 400.918 52.36 398.056 52.36C394.973 52.36 394.533 49.72 394.533 49.72Z" fill="#05336E"/>
<path d="M45.2437 41.91C45.3537 42.9 45.3537 44.11 45.3537 46.97C45.3537 50.16 45.3537 51.37 45.2437 52.47H47.5554C47.4453 51.37 47.4453 50.16 47.4453 46.97C47.4453 44 47.4453 42.9 47.5554 41.91H45.2437Z" fill="#05336E"/>
<path d="M49.647 49.6099C49.647 51.4799 51.078 52.5799 53.4998 52.5799C56.0317 52.5799 57.4628 51.4799 57.4628 49.4999C57.4628 48.1799 56.6922 47.2999 55.3712 46.8599C56.472 46.4199 57.1325 45.6499 57.1325 44.4399C57.1325 42.6799 55.8116 41.6899 53.6099 41.6899C51.2982 41.6899 49.9772 42.7899 49.9772 44.5499C49.9772 45.6499 50.6377 46.5299 51.7385 46.9699C50.4175 47.4099 49.647 48.2899 49.647 49.6099ZM53.4998 42.6799C54.4906 42.6799 55.041 43.4499 55.041 44.6599C55.041 45.8699 54.4906 46.5299 53.6099 46.5299C52.6192 46.5299 52.0688 45.7599 52.0688 44.5499C52.0688 43.3399 52.6192 42.6799 53.4998 42.6799ZM53.4998 47.5199C54.6007 47.5199 55.2611 48.2899 55.2611 49.7199C55.2611 51.0399 54.6007 51.8099 53.4998 51.8099C52.399 51.8099 51.7385 51.0399 51.7385 49.6099C51.8486 48.2899 52.5091 47.5199 53.4998 47.5199Z" fill="#05336E"/>
<path d="M59.0039 49.6099C59.0039 51.4799 60.435 52.5799 62.8568 52.5799C65.3886 52.5799 66.8197 51.4799 66.8197 49.4999C66.8197 48.1799 66.0491 47.2999 64.7282 46.8599C65.829 46.4199 66.4895 45.6499 66.4895 44.4399C66.4895 42.6799 65.1685 41.6899 62.9669 41.6899C60.6551 41.6899 59.3342 42.7899 59.3342 44.5499C59.3342 45.6499 59.9946 46.5299 61.0955 46.9699C59.7745 47.4099 59.0039 48.2899 59.0039 49.6099ZM62.9669 42.6799C63.9576 42.6799 64.508 43.4499 64.508 44.6599C64.508 45.8699 63.9576 46.5299 63.0769 46.5299C62.0862 46.5299 61.5358 45.7599 61.5358 44.5499C61.4257 43.3399 61.9761 42.6799 62.9669 42.6799ZM62.9669 47.5199C64.0677 47.5199 64.7282 48.2899 64.7282 49.7199C64.7282 51.0399 64.0677 51.8099 62.9669 51.8099C61.866 51.8099 61.2055 51.0399 61.2055 49.6099C61.2055 48.2899 61.866 47.5199 62.9669 47.5199Z" fill="#05336E"/>
<path d="M72.984 45.65C71.7731 45.65 71.0025 46.2 70.5622 46.75C70.6723 44.33 71.3328 42.68 72.984 42.68C74.305 42.68 75.0756 44 75.0756 44V42.13C75.0756 42.13 74.305 41.8 72.8739 41.8C70.232 41.8 68.2505 43.89 68.2505 47.52C68.2505 51.15 69.7916 52.8 72.3235 52.8C74.6352 52.8 76.0663 51.37 76.0663 49.06C76.1764 46.86 74.9655 45.65 72.984 45.65ZM72.5437 51.5901C71.4429 51.5901 70.7824 50.71 70.6723 47.85C71.0025 47.41 71.663 46.97 72.4336 46.97C73.5344 46.97 74.0848 47.74 74.0848 49.17C74.0848 50.71 73.4243 51.5901 72.5437 51.5901Z" fill="#05336E"/>
<path d="M65.6087 11.22C50.6376 -3.74 26.3095 -3.74 11.3384 11.22C3.96294 18.48 0.220163 27.94 0 37.51V37.62C0 38.06 0 38.39 0 38.83C0 38.61 0 38.5 0 38.28C0 41.58 0.330245 44.88 1.2109 48.18C6.6049 68.75 27.5204 81.07 48.1057 75.79C57.7929 73.26 65.6087 67.32 70.6725 59.51H70.5624C65.939 66.11 59.1139 71.17 50.6376 73.37C31.9237 78.21 12.7695 66.99 7.92588 48.29C7.04523 44.66 6.71499 41.14 6.82507 37.62H8.36621C8.25613 40.48 8.58638 43.45 9.35695 46.31C13.7602 63.14 30.933 73.15 47.6654 68.86C53.83 67.32 59.0038 63.91 62.9668 59.51C57.903 64.24 51.188 67.21 43.7024 67.21C35.6665 67.21 28.4011 63.8 23.2272 58.41C23.1172 58.3 23.0071 58.19 23.0071 58.19C22.897 58.08 22.7869 57.97 22.7869 57.86C19.9248 54.67 17.6131 50.71 16.5123 46.2C15.7417 43.34 15.5215 40.48 15.7417 37.62H17.503C17.3929 40.04 17.6131 42.46 18.2736 44.88C21.576 57.75 34.7858 65.56 47.6654 62.15C49.867 61.6 51.9586 60.72 53.83 59.51H53.3896C50.8578 60.61 47.9956 61.27 45.1335 61.27C33.5749 61.27 24.218 51.92 24.218 40.37C24.218 39.38 24.3281 38.5 24.4381 37.62H29.9422H52.509H59.8845H70.2321H76.9471C76.6169 28.05 72.8741 18.48 65.6087 11.22ZM12.2191 36.41C12.9896 32.56 14.751 28.82 17.7232 25.85C25.649 17.93 38.6387 17.93 46.5646 25.85C48.6561 27.94 50.1973 30.36 51.0779 32.89L12.2191 36.41ZM52.7292 22.77C43.2621 13.31 28.0708 13.31 18.6038 22.77C14.751 26.62 12.5493 31.46 11.8888 36.52L5.61417 37.07C6.38474 31.13 9.0267 25.3 13.6501 20.79C24.6583 9.79 42.4915 9.79 53.4997 20.79C56.8022 24.09 59.1139 27.94 60.4349 32.12L58.6736 32.23C57.4627 28.82 55.4812 25.52 52.7292 22.77ZM67.7003 31.46C66.3793 26.18 63.6272 21.23 59.4441 17.05C47.115 4.73 27.0801 4.73 14.6409 17.05C9.0267 22.66 6.0545 29.81 5.50409 37.07L1.98147 37.4L0 37.51C0.440327 29.15 3.85286 21.01 10.2376 14.63C23.8877 0.880001 46.1242 0.880001 59.8845 14.63C64.618 19.36 67.7003 25.19 69.1313 31.35L67.7003 31.46Z" fill="#05336E"/>
</g>
<defs>
<clipPath id="clip0_35_160">
<rect width="404" height="77" fill="white"/>
</clipPath>
</defs>
</svg>
